<mxfile host="app.diagrams.net" modified="2024-05-21T13:35:40.383Z" agent="Mozilla/5.0 (Windows NT 10.0; Win64; x64) AppleWebKit/537.36 (KHTML, like Gecko) Chrome/124.0.0.0 Safari/537.36 Edg/124.0.0.0" version="24.4.4" etag="PywOVtSw_zqYqMqiEcdA" type="github">
  <diagram name="Page-1" id="6H1_ni3TRx7vjBN6K1Yd">
    <mxGraphModel>
      <root>
        <mxCell id="0" />
        <mxCell id="1" parent="0" />
      </root>
    </mxGraphModel>
  </diagram>
</mxfile>
